
<svg version="1.0" xmlns="http://www.w3.org/2000/svg"
 width="512.000000pt" height="512.000000pt" viewBox="0 0 512.000000 512.000000"
 preserveAspectRatio="xMidYMid meet">

<g transform="translate(0.000000,512.000000) scale(0.100000,-0.100000)"
fill="#f6ae02" stroke="none">
<path d="M2945 3450 l-1020 -1020 -343 342 -342 343 -150 -150 -150 -150 490
-490 490 -490 1172 1172 1173 1173 -145 145 c-80 80 -147 145 -150 145 -3 0
-464 -459 -1025 -1020z"/>
<path d="M1590 4250 c-262 -36 -517 -127 -728 -258 -221 -138 -424 -336 -564
-552 -465 -715 -366 -1664 236 -2266 370 -370 883 -560 1410 -523 578 41 1101
357 1408 851 138 222 227 480 259 753 18 149 4 452 -27 594 -5 22 -23 7 -193
-163 l-188 -188 -6 -131 c-26 -560 -412 -1060 -954 -1236 -204 -66 -468 -84
-673 -47 -573 104 -1022 553 -1126 1126 -24 130 -23 363 1 490 51 274 176 518
365 714 191 198 410 324 686 393 101 25 124 27 314 28 161 0 223 -4 290 -18
129 -28 261 -75 344 -122 l74 -42 145 156 c168 181 167 154 9 242 -156 87
-329 147 -537 186 -94 18 -448 26 -545 13z"/>
</g>
</svg>
