<?xml version="1.0" standalone="no"?>
<!DOCTYPE svg PUBLIC "-//W3C//DTD SVG 20010904//EN"
 "http://www.w3.org/TR/2001/REC-SVG-20010904/DTD/svg10.dtd">
<svg version="1.0" xmlns="http://www.w3.org/2000/svg"
 width="225.000000pt" height="225.000000pt" viewBox="0 0 225.000000 225.000000"
 preserveAspectRatio="xMidYMid meet">

<g transform="translate(0.000000,225.000000) scale(0.100000,-0.100000)"
fill="#000000" stroke="none">
<path d="M405 2239 c-19 -5 -95 -73 -212 -191 -172 -173 -182 -185 -188 -230
-13 -89 -6 -99 301 -408 l283 -285 -283 -285 c-307 -309 -314 -318 -301 -408
6 -45 15 -56 193 -234 168 -167 191 -187 228 -193 95 -15 104 -8 414 301 l285
283 285 -283 c309 -307 318 -314 408 -301 45 6 56 15 234 193 167 168 187 191
193 228 15 95 8 104 -301 414 l-283 285 283 285 c307 309 314 319 301 408 -6
45 -15 56 -193 234 -178 178 -189 187 -234 193 -89 13 -99 6 -408 -301 l-285
-284 -275 275 c-172 172 -290 283 -316 295 -43 21 -80 24 -129 9z"/>
</g>
</svg>
