<?xml version="1.0" standalone="no"?>
<!DOCTYPE svg PUBLIC "-//W3C//DTD SVG 20010904//EN"
 "http://www.w3.org/TR/2001/REC-SVG-20010904/DTD/svg10.dtd">
<svg version="1.0" xmlns="http://www.w3.org/2000/svg"
 width="24.000000pt" height="24.000000pt" viewBox="0 0 24.000000 24.000000"
 preserveAspectRatio="xMidYMid meet">

<g transform="translate(0.000000,24.000000) scale(0.100000,-0.100000)"
fill="#000000" stroke="none">
<path d="M53 204 c-8 -22 10 -49 33 -49 21 0 33 40 17 56 -6 6 -8 -2 -5 -21 3
-23 0 -30 -12 -30 -22 0 -31 27 -16 45 9 11 9 15 1 15 -6 0 -14 -7 -18 -16z"/>
<path d="M158 210 c30 -13 25 -45 -6 -44 -16 0 -20 -2 -12 -10 16 -16 45 7 45
35 0 18 -6 25 -25 26 l-25 3 23 -10z"/>
<path d="M10 155 c-19 -23 -3 -55 28 -55 20 0 23 -3 14 -12 -16 -16 -15 -43 3
-58 20 -16 110 -16 130 0 18 15 19 42 3 58 -9 9 -6 12 14 12 33 0 48 35 25 58
-21 20 -47 0 -47 -36 l0 -25 -23 21 c-13 12 -29 22 -37 22 -8 0 -24 -10 -37
-22 l-23 -21 0 24 c0 24 -16 49 -31 49 -4 0 -12 -7 -19 -15z m38 -23 c2 -14
-2 -22 -12 -22 -19 0 -29 17 -22 36 8 22 30 12 34 -14z m177 2 c0 -10 -8 -20
-17 -22 -18 -3 -26 27 -11 42 12 11 28 0 28 -20z m-62 -33 c48 -51 35 -74 -43
-74 -54 0 -70 7 -70 29 0 21 51 74 70 74 8 0 27 -13 43 -29z"/>
</g>
</svg>
